<?xml version="1.0" standalone="no"?>
<!DOCTYPE svg PUBLIC "-//W3C//DTD SVG 20010904//EN"
 "http://www.w3.org/TR/2001/REC-SVG-20010904/DTD/svg10.dtd">
<svg version="1.0" xmlns="http://www.w3.org/2000/svg"
 width="16.000000pt" height="16.000000pt" viewBox="0 0 16.000000 16.000000"
 preserveAspectRatio="xMidYMid meet">

<g transform="translate(0.000000,16.000000) scale(0.100000,-0.100000)"
fill="#000000" stroke="none">
<path d="M39 127 c-24 -18 -23 -87 2 -110 10 -10 19 -13 19 -7 0 6 -7 13 -15
16 -19 8 -17 64 2 64 7 0 13 6 13 13 0 8 3 8 9 -2 5 -8 16 -11 24 -8 10 4 20
-5 31 -26 13 -28 13 -32 1 -35 -8 -2 -15 -10 -15 -18 0 -11 5 -10 21 5 20 19
21 20 4 53 -10 18 -21 40 -25 48 -9 19 -50 23 -71 7z m61 -6 c0 -6 -5 -13 -12
-17 -7 -4 -8 -3 -4 4 10 16 -26 15 -44 0 -12 -11 -12 -10 -1 5 14 18 61 24 61
8z"/>
<path d="M70 12 c0 -5 7 -9 15 -9 8 0 15 4 15 9 0 4 -7 8 -15 8 -8 0 -15 -4
-15 -8z"/>
</g>
</svg>
